# xmcd
#
# Track frame offsets: 
#        150
#        19970
#        30315
#        59600
#        81486
#        107546
#        120075
#        137724
#        156842
#        177001
#        205376
#        222985
#        237015
#        257053
#        268068
#
# Disc length: 3757 seconds
#
# Revision: 2
# Processed by: cddbd v1.5.2PL0 Copyright (c) Steve Scherf et al.
# Submitted via: ExactAudioCopy v0.99pb4
#
DISCID=cd0eab0f
DTITLE=Владимир Шандриков - Где мои берега
DYEAR=2003
DGENRE=Шансон
TTITLE0=Поговорим за жизнь
TTITLE1=Исповедь одной ночи
TTITLE2=Про подземную вселенную
TTITLE3=Про русского Ивана
TTITLE4=Кузькина любовь
TTITLE5=День строителя
TTITLE6=Один за всех
TTITLE7=Показания невиновного
TTITLE8=Неумышленное убийство
TTITLE9=Крестины
TTITLE10=Стена на Тарской
TTITLE11=Всё потом
TTITLE12="832"
TTITLE13=Всё ещё впереди
TTITLE14=Возвращение
EXTD=В.Шандриков - вокал, гитара.\nАнсамбль"Черноморская чайка" п/у В.
EXTD=Коцышевского.\nЗаписано в Одессе, в 1977-78г.\nИнформационная под
EXTD=держка: www.blatata.ru\n2003г."Фонд русский стиль".
EXTT0=
EXTT1=
EXTT2=
EXTT3=
EXTT4=
EXTT5=
EXTT6=
EXTT7=
EXTT8=
EXTT9=
EXTT10=
EXTT11=
EXTT12=
EXTT13=
EXTT14=
PLAYORDER=
